<svg width="500" height="500" viewBox="0 0 500 500" fill="none" xmlns="http://www.w3.org/2000/svg">
<g clip-path="url(#clip0_21_2)">
<mask id="mask0_21_2" style="mask-type:alpha" maskUnits="userSpaceOnUse" x="0" y="0" width="500" height="500">
<rect width="500" height="500" fill="#D9D9D9"/>
</mask>
<g mask="url(#mask0_21_2)">
<path d="M125 447.917C104.861 447.917 87.6737 440.799 73.4376 426.562C59.2015 412.326 52.0834 395.139 52.0834 375C52.0834 354.861 59.2015 337.674 73.4376 323.437C87.6737 309.201 104.861 302.083 125 302.083C145.139 302.083 162.326 309.201 176.563 323.437C190.799 337.674 197.917 354.861 197.917 375C197.917 382.639 196.788 390.017 194.531 397.135C192.274 404.253 188.889 410.937 184.375 417.187V403.125C194.792 407.639 205.556 411.024 216.667 413.281C227.778 415.538 238.889 416.667 250 416.667C296.528 416.667 335.938 400.521 368.229 368.229C400.521 335.937 416.667 296.528 416.667 250H458.333C458.333 278.819 452.865 305.903 441.927 331.25C430.99 356.597 416.146 378.646 397.396 397.396C378.646 416.146 356.597 430.99 331.25 441.927C305.903 452.865 278.82 458.333 250 458.333C234.375 458.333 219.097 456.684 204.167 453.385C189.236 450.087 174.826 445.139 160.938 438.542C155.382 441.667 149.566 444.01 143.49 445.573C137.413 447.135 131.25 447.917 125 447.917ZM125 406.25C133.681 406.25 141.059 403.212 147.135 397.135C153.212 391.059 156.25 383.681 156.25 375C156.25 366.319 153.212 358.941 147.135 352.865C141.059 346.788 133.681 343.75 125 343.75C116.32 343.75 108.941 346.788 102.865 352.865C96.7883 358.941 93.7501 366.319 93.7501 375C93.7501 383.681 96.7883 391.059 102.865 397.135C108.941 403.212 116.32 406.25 125 406.25ZM250 322.917C229.861 322.917 212.674 315.799 198.438 301.562C184.201 287.326 177.083 270.139 177.083 250C177.083 229.861 184.201 212.674 198.438 198.437C212.674 184.201 229.861 177.083 250 177.083C270.139 177.083 287.326 184.201 301.563 198.437C315.799 212.674 322.917 229.861 322.917 250C322.917 270.139 315.799 287.326 301.563 301.562C287.326 315.799 270.139 322.917 250 322.917ZM41.6667 250C41.6667 221.181 47.1355 194.097 58.073 168.75C69.0105 143.403 83.8542 121.354 102.604 102.604C121.354 83.8542 143.403 69.0104 168.75 58.0729C194.097 47.1354 221.181 41.6667 250 41.6667C265.625 41.6667 280.903 43.316 295.833 46.6146C310.764 49.9132 325.174 54.8611 339.063 61.4583C344.618 58.3333 350.434 55.9896 356.51 54.4271C362.587 52.8646 368.75 52.0833 375 52.0833C395.139 52.0833 412.326 59.2014 426.563 73.4375C440.799 87.6736 447.917 104.861 447.917 125C447.917 145.139 440.799 162.326 426.563 176.562C412.326 190.799 395.139 197.917 375 197.917C354.861 197.917 337.674 190.799 323.438 176.562C309.201 162.326 302.083 145.139 302.083 125C302.083 117.361 303.212 109.983 305.469 102.865C307.726 95.7465 311.111 89.0625 315.625 82.8125V96.875C305.208 92.3611 294.445 88.9757 283.333 86.7187C272.222 84.4618 261.111 83.3333 250 83.3333C203.472 83.3333 164.063 99.4792 131.771 131.771C99.4792 164.062 83.3334 203.472 83.3334 250H41.6667ZM375 156.25C383.681 156.25 391.059 153.212 397.135 147.135C403.212 141.059 406.25 133.681 406.25 125C406.25 116.319 403.212 108.941 397.135 102.865C391.059 96.7882 383.681 93.75 375 93.75C366.32 93.75 358.941 96.7882 352.865 102.865C346.788 108.941 343.75 116.319 343.75 125C343.75 133.681 346.788 141.059 352.865 147.135C358.941 153.212 366.32 156.25 375 156.25Z" fill="url(#paint0_linear_21_2)"/>
</g>
</g>
<defs>
<linearGradient id="paint0_linear_21_2" x1="42.2223" y1="458.889" x2="458.889" y2="41.1111" gradientUnits="userSpaceOnUse">
<stop stop-color="#06B6D4"/>
<stop offset="1" stop-color="#8B5CF6"/>
</linearGradient>
<clipPath id="clip0_21_2">
<rect width="500" height="500" rx="250" fill="white"/>
</clipPath>
</defs>
</svg>
